<?xml version="1.0" encoding="utf-8"?>
<!-- Generator: Adobe Illustrator 16.0.0, SVG Export Plug-In . SVG Version: 6.00 Build 0)  -->
<!DOCTYPE svg PUBLIC "-//W3C//DTD SVG 1.1//EN" "http://www.w3.org/Graphics/SVG/1.1/DTD/svg11.dtd">
<svg version="1.1" id="Layer_1" xmlns="http://www.w3.org/2000/svg" xmlns:xlink="http://www.w3.org/1999/xlink" x="0px" y="0px"
	 width="201px" height="209px" viewBox="0 0 201 209" enable-background="new 0 0 201 209" xml:space="preserve">
<g>
	<polygon fill="#415A6B" points="81.711,208.059 104.501,196.264 83.55,155.781 50.69,172.786 	"/>
	<path fill="#EE6F5B" d="M21.386,146.258L9.464,123.22c-0.018-0.034-0.03-0.069-0.048-0.104l-1.852,0.957
		c-4.846,2.51-6.76,8.525-4.251,13.372l7.415,14.327l7.414,14.33c2.508,4.846,8.524,6.757,13.371,4.252l1.852-0.961
		c-0.018-0.033-0.041-0.063-0.059-0.098L21.386,146.258z"/>
	<path fill="#ED6D5A" d="M154.042,50.121l11.221,21.682l11.221,21.683c6.755-7.909,8.447-19.427,3.372-29.234
		C174.778,54.443,164.401,49.172,154.042,50.121z"/>
	<path fill="#DADADA" d="M84.355,60.527C73.07,71.818,53.979,87.418,53.979,87.418l17.132,33.107l17.133,33.105
		c0,0,23.761-6.576,39.495-9.266c33.37-5.703,57.375,0.611,57.375,0.611l-0.527-1.016l-21.753-42.036l-11.783-22.769l-11.782-22.769
		l-21.751-42.035l-0.527-1.015C116.99,13.337,108.282,36.579,84.355,60.527z"/>
	<path fill="#ACB3BA" d="M14.323,107.939c-1.385,0.716-2.56,1.684-3.498,2.818c-0.94,1.135-1.643,2.436-2.084,3.818
		c-0.439,1.386-0.617,2.855-0.505,4.323c0.108,1.432,0.497,2.861,1.18,4.216c0.018,0.035,0.03,0.07,0.048,0.104l11.922,23.038
		l11.921,23.037c0.018,0.035,0.041,0.064,0.059,0.098c0.711,1.342,1.654,2.486,2.76,3.401c1.134,0.938,2.436,1.641,3.82,2.083
		c1.385,0.439,2.853,0.617,4.322,0.507c1.468-0.112,2.937-0.514,4.32-1.229l39.656-20.523l-17.133-33.105L53.979,87.418
		L14.323,107.939z"/>
	<path fill="#ACB3BA" d="M120.713,3.123c-3.907,2.023-5.345,7.075-3.195,11.229l21.751,42.035l11.782,22.769l11.783,22.769
		l21.753,42.036c2.149,4.154,7.105,5.898,11.014,3.875c3.908-2.021,5.347-7.074,3.196-11.229l-22.313-43.121l-11.221-21.683
		l-11.221-21.682L131.727,7C129.577,2.845,124.622,1.101,120.713,3.123z"/>
	
		<linearGradient id="SVGID_1_" gradientUnits="userSpaceOnUse" x1="34.2231" y1="127.9102" x2="34.2231" y2="116.1582" gradientTransform="matrix(0.8881 -0.4596 0.4596 0.8881 -16.6594 76.8521)">
		<stop  offset="0" style="stop-color:#415A6B;stop-opacity:0.1"/>
		<stop  offset="1" style="stop-color:#1D2B34"/>
	</linearGradient>
	<polygon fill="url(#SVGID_1_)" points="83.55,155.781 50.69,172.786 58.686,181.878 88.951,166.218 	"/>
</g>
</svg>
